<svg width="53" height="53" viewBox="0 0 53 53" fill="none" xmlns="http://www.w3.org/2000/svg">
<path fill-rule="evenodd" clip-rule="evenodd" d="M29.5148 6.89488C30.2203 6.37487 30.9861 5.93168 31.7997 5.57771L26.3859 0.166626L20.3783 6.17114C17.0604 9.48735 17.0604 14.864 20.3783 18.1802L21.2571 19.0585C22.277 18.3434 23.4519 17.8342 24.7215 17.5913V16.3713C24.7215 12.5973 26.4992 9.2384 29.2634 7.08538C29.3463 7.02079 29.4301 6.95728 29.5148 6.89488ZM18.062 20.4953L18.96 21.3929C18.2653 22.4185 17.7766 23.5949 17.5533 24.8628H16.2255L16.2025 24.8628C11.5331 24.8362 7.75604 21.0446 7.75604 16.3713V7.87959H15.4237C13.7702 12.101 14.6496 17.0847 18.062 20.4953ZM16.252 28.137H17.5774C18.2682 31.7443 21.1124 34.587 24.7215 35.2774V36.6287C24.7215 41.4532 27.6255 45.5974 31.7816 47.4137L26.3593 52.8333L20.3518 46.8288C17.6196 44.098 17.1354 39.9664 18.9073 36.7405C19.3426 35.948 19.0527 34.9528 18.2597 34.5177C17.4668 34.0826 16.4711 34.3724 16.0358 35.1649C14.3493 38.2353 14.1355 41.8993 15.397 45.1202H7.72947L7.72947 36.6286C7.72947 31.9479 11.5184 28.1518 16.1979 28.1369L16.252 28.137ZM27.9972 36.6287V35.3015C31.6684 34.6556 34.5734 31.7879 35.2725 28.1371H36.4932C41.1854 28.1371 44.9892 31.9389 44.9892 36.6287V45.1204L36.4932 45.1204C35.995 45.1204 35.5081 45.0777 35.0355 44.9962C31.0381 44.3063 27.9972 40.8208 27.9972 36.6287ZM36.4932 24.863H35.2966C35.0688 23.5694 34.5647 22.371 33.8475 21.3309L34.6832 20.4955C38.0011 17.1793 43.3805 17.1793 46.6984 20.4955L52.706 26.5L47.2841 31.9192C45.4668 27.7655 41.3191 24.863 36.4932 24.863ZM32.3669 18.1804L31.5312 19.0157C30.4905 18.2988 29.2915 17.7949 27.9972 17.5672V16.3713C27.9972 11.6815 31.801 7.87963 36.4932 7.87963L39.0267 7.87948H44.9892V15.5435C40.7656 13.8907 35.7794 14.7697 32.3669 18.1804ZM5.46118 21.0808C6.45214 23.3458 8.13608 25.2389 10.2451 26.492C8.12941 27.7417 6.43892 29.6342 5.44272 31.9006L0.0393066 26.4999L5.46118 21.0808ZM32.1575 26.4344C32.1575 23.2699 29.591 20.7047 26.4249 20.7047C23.2589 20.7047 20.6923 23.2699 20.6923 26.4344C20.6923 29.5988 23.2589 32.1641 26.4249 32.1641C29.591 32.1641 32.1575 29.5988 32.1575 26.4344Z" fill="url(#paint0_linear_171_90)"/>
<defs>
<linearGradient id="paint0_linear_171_90" x1="43.6667" y1="46.9944" x2="10.8623" y2="0.1508" gradientUnits="userSpaceOnUse">
<stop stop-color="#5E2CE0"/>
<stop offset="1" stop-color="#A652F9"/>
</linearGradient>
</defs>
</svg>
